# xmcd
#
# Track frame offsets: 
#        150
#        27197
#        45205
#        69879
#        86029
#        123167
#        159556
#        186718
#        211027
#        247288
#        285779
#        309675
#
# Disc length: 4670 seconds
#
# Revision: 0
# Processed by: cddbd v1.5.2PL0 Copyright (c) Steve Scherf et al.
# Submitted via: ExactAudioCopy v1.2
#
DISCID=9e123c0c
DTITLE=Albert Cummings - Live at the '62 Center
DYEAR=2017
DGENRE=Blues
TTITLE0=500 Miles (Live)
TTITLE1=Finally in Love (Live)
TTITLE2=No Doubt (Live)
TTITLE3=I've Got Feelings Too (Live)
TTITLE4=Sweet Love (Live)
TTITLE5=Lonely Bed (Live)
TTITLE6=Hurts Me Too (Live)
TTITLE7=Up Your Sleeve (Live)
TTITLE8=Cry Me a River (Live)
TTITLE9=Found You (Live)
TTITLE10=Movin' On (Live)
TTITLE11=Glass House - Midnight Rider (Live)
EXTD=
EXTT0=
EXTT1=
EXTT2=
EXTT3=
EXTT4=
EXTT5=
EXTT6=
EXTT7=
EXTT8=
EXTT9=
EXTT10=
EXTT11=
PLAYORDER=
